<?xml version="1.0" encoding="iso-8859-1"?>
<!-- Generator: Adobe Illustrator 19.0.0, SVG Export Plug-In . SVG Version: 6.00 Build 0)  -->
<svg version="1.1" id="Layer_1" xmlns="http://www.w3.org/2000/svg" xmlns:xlink="http://www.w3.org/1999/xlink" x="0px" y="0px"
	 viewBox="0 0 512.001 512.001" style="enable-background:new 0 0 512.001 512.001;" xml:space="preserve">
<g>
	<g>
		<path d="M473.436,177.485h-54.284L380.257,41.293c-7.024-21.06-24.239-36.098-46.062-40.203
			c-21.855-4.127-43.339,3.615-57.539,20.667c-10.236,12.283-31.078,12.283-41.314,0C221.134,4.706,199.66-3.026,177.806,1.091
			c-21.822,4.106-39.038,19.143-46.279,40.9L92.848,177.485H38.565c-9.234,0-16.726,7.492-16.726,16.726s7.492,16.726,16.726,16.726
			h50.177V329.24l-8.712-4.751c-5.76-3.137-12.773-2.635-18.021,1.274c-5.237,3.909-7.721,10.519-6.348,16.911l33.452,156.107
			c1.655,7.709,8.472,13.219,16.356,13.219h133.806V411.344l-117.071-63.852l-0.006-69.553
			c0.055,36.847,30.039,66.804,66.899,66.804c36.893,0,66.903-30.011,66.903-66.903c0,36.893,30.011,66.903,66.903,66.903
			s66.903-30.011,66.903-66.903v69.646l-117.081,63.858v100.657h133.806c7.883,0,14.701-5.509,16.356-13.219l33.452-156.107
			c1.372-6.391-1.111-13.002-6.348-16.911c-5.237-3.909-12.261-4.41-18.021-1.274l-8.72,4.757l0.004-68.087
			c0-0.015,0.004-0.029,0.004-0.045s-0.004-0.029-0.004-0.045l0.003-50.133h50.177v0c9.234,0,16.726-7.492,16.726-16.726
			S482.669,177.485,473.436,177.485z M389.807,244.388h-16.726H272.726h-33.452H138.92h-16.724l-0.002-33.452h267.613V244.388z"/>
	</g>
</g>
<g>
</g>
<g>
</g>
<g>
</g>
<g>
</g>
<g>
</g>
<g>
</g>
<g>
</g>
<g>
</g>
<g>
</g>
<g>
</g>
<g>
</g>
<g>
</g>
<g>
</g>
<g>
</g>
<g>
</g>
</svg>
